<?xml version="1.0" encoding="UTF-8"?>
<svg id="Layer_1" data-name="Layer 1" xmlns="http://www.w3.org/2000/svg" version="1.1" viewBox="0 0 100 100">
  <defs>
    <style>
      .cls-1 {
        fill: #000;
        stroke-width: 0px;
      }
    </style>
  </defs>
  <path class="cls-1" d="M83.05,46.32c-5.84,0-10.59,4.75-10.59,10.59s4.75,10.59,10.59,10.59,10.59-4.75,10.59-10.59-4.75-10.59-10.59-10.59Z"/>
  <path class="cls-1" d="M59.15,46.57c-1.11-1-2.82-.92-3.82.19-1,1.11-.92,2.82.19,3.82l4.01,3.63h-14.85V16.65c0-1.49-1.21-2.7-2.7-2.7s-2.7,1.21-2.7,2.7v37.56H14.58l15.91-20.52c.92-1.18.7-2.88-.48-3.79-1.18-.92-2.88-.7-3.79.48L6.92,55.25c-.63.82-.75,1.92-.29,2.85.45.93,1.4,1.51,2.43,1.51h30.21v23.73c0,1.49,1.21,2.7,2.7,2.7s2.7-1.21,2.7-2.7v-23.73h15.55l-4.85,5.08c-1.03,1.08-.99,2.79.09,3.82.52.5,1.2.75,1.87.75.71,0,1.43-.28,1.96-.84l9.22-9.65c.5-.53.77-1.24.75-1.97-.03-.73-.35-1.42-.89-1.91l-9.22-8.34Z"/>
</svg>